# xmcd
#
# Track frame offsets:
#	150
#	14607
#	28649
#	40459
#	54940
#	70156
#	83319
#	97839
#	116328
#	127730
#	136870
#	152109
#	161816
#	173606
#	205226
#	219012
#
# Disc length: 3105
#
# Revision: 1
# Processed by: cddbd v1.5.1PL0 Copyright (c) Steve Scherf et al.
# Submitted via: CDex 1.51
# Normalized: r0:DSETVAR1,TDELIM( - )
#
DISCID=bf0c1f10
DTITLE=Various Artist - The Corner of Bleeker and the Blues
DYEAR=1900
DGENRE=Blues
TTITLE0=Lead Belly - The Gallis Pole
TTITLE1=Woody Guthrie - Pretty Boy Floyd
TTITLE2=Odetta - Midnight Special
TTITLE3=Lightnin' Hopkins - See See Rider
TTITLE4=Brownie McGhee and Sonny Terry - Ain't Gonna Study War No More
TTITLE5=Brownie McGhee and Sonny Terry - Chain Gang Special
TTITLE6=Big Bill Broonzy - Baby I Done Got Wise
TTITLE7=Barbara Dane - Girl of Constant Sorrow
TTITLE8=Kossoy Sisters - I'll Fly Away
TTITLE9=Ramblin' Jack Elliot - More Pretty Girls Than One
TTITLE10=Woody Guthrie - Going Down The Road (I Ain't Gonna Be Treated This Way)
TTITLE11=Oscar Brand - Give My Regards to Mayor Laguardia
TTITLE12=Josh White - Lonesome Road
TTITLE13=Lightnin' Hopkins - Blues for Gamblers
TTITLE14=Lead Belly - Where Did You Sleep Last Night?
TTITLE15=Big Joe Williams - Great Gospel Blues ( Right on That Shore)
EXTD=
EXTT0=
EXTT1=
EXTT2=
EXTT3=
EXTT4=
EXTT5=
EXTT6=
EXTT7=
EXTT8=
EXTT9=
EXTT10=
EXTT11=
EXTT12=
EXTT13=
EXTT14=
EXTT15=
PLAYORDER=
